<svg width="40" height="40" viewBox="0 0 40 40" fill="none" xmlns="http://www.w3.org/2000/svg">
<rect width="40" height="40" rx="20" fill="#EDF0FA"/>
<path d="M21 11C26.5 11 31 14.58 31 19C31 23.42 26.5 27 21 27C19.76 27 18.57 26.82 17.47 26.5C14.55 29 11 29 11 29C13.33 26.67 13.7 25.1 13.75 24.5C12.05 23.07 11 21.13 11 19C11 14.58 15.5 11 21 11Z" fill="#374A77"/>
<path d="M18.8438 23H17.8008V15.7754L16.0078 16.5781V15.5938L18.6797 14.4277H18.8438V23ZM26.4551 23H21.6855V22.2207L24.1172 18.998C24.4844 18.502 24.7383 18.0957 24.8789 17.7793C25.0234 17.459 25.0957 17.1211 25.0957 16.7656C25.0957 16.3125 24.9902 15.9453 24.7793 15.6641C24.5684 15.3828 24.291 15.2422 23.9473 15.2422C23.5137 15.2422 23.1777 15.3926 22.9395 15.6934C22.7051 15.9902 22.5879 16.4199 22.5879 16.9824H21.5508C21.5508 16.1973 21.7656 15.5625 22.1953 15.0781C22.625 14.5938 23.209 14.3516 23.9473 14.3516C24.627 14.3516 25.1621 14.5605 25.5527 14.9785C25.9434 15.3926 26.1387 15.9453 26.1387 16.6367C26.1387 17.4805 25.6992 18.4785 24.8203 19.6309L22.9219 22.1152H26.4551V23Z" fill="white"/>
<circle cx="34" cy="6" r="5.5" fill="#E74C3C" stroke="white"/>
</svg>
