<svg width="238" height="64" viewBox="0 0 238 64" fill="none" xmlns="http://www.w3.org/2000/svg">
<g clip-path="url(#clip0_1941:1097)">
<path d="M47.0223 16.8584L35.6423 27.3169L24.2233 16.8584L16 48.0779H19.7024L26.2109 23.2974L35.6423 31.9608L45.0347 23.2974L51.5821 48.0779H55.2456L47.0223 16.8584Z" fill="white"/>
<path d="M35.6423 33.7953L27.1462 26.1465L21.6121 48.0782H25.2755L29.1728 32.5465L35.6033 38.4001L42.0728 32.5855L45.97 48.0782H49.6335L44.0994 26.1465L35.6423 33.7953Z" fill="white"/>
<path d="M42.1119 39.0636L41.2934 35.2392L32.1738 43.1611L33.2651 38.166L29.9524 35.1611L27.1853 48.0782H31.1216L35.2527 44.6831L39.072 48.0782H43.9826L37.8249 42.5758L42.1119 39.0636Z" fill="white"/>
<path d="M62.6504 17.9121H64.677L65.9241 22.1658L67.2102 17.9121H69.2368L70.2891 24.8975H68.3404L67.7948 20.8389L66.5867 24.8975H65.3006L64.0924 20.8389L63.5468 24.8975H61.5981L62.6504 17.9121Z" fill="white"/>
<path d="M73.2901 17.9121H75.7453L78.3175 24.8975H76.174L75.7843 23.6877H73.2901L72.9003 24.8975H70.7568L73.2901 17.9121ZM73.7188 22.1658H75.3556L74.5372 19.5902L73.7188 22.1658Z" fill="white"/>
<path d="M79.019 17.9121H83.345V19.5902H81.0456V24.8975H79.019V17.9121Z" fill="white"/>
<path d="M84.1633 17.9121H86.1899V20.4487H88.6062V17.9121H90.6328V24.8975H88.6062V22.1267H86.1899V24.8975H84.1633V17.9121Z" fill="white"/>
<path d="M93.9066 17.9121V22.1267L96.7127 17.9121H98.7003V24.8975H96.7516V20.7219L93.9456 24.8975H91.958V17.9121H93.9066Z" fill="white"/>
<path d="M101.039 19.5902H99.4797V17.9121H104.663V19.5902H103.065V24.8975H101.039V19.5902Z" fill="white"/>
<path d="M105.092 21.4241C105.092 19.5509 106.339 17.7168 108.95 17.7168C111.6 17.7168 112.808 19.5509 112.808 21.4241C112.808 23.2973 111.561 25.1314 108.95 25.1314C106.339 25.0924 105.092 23.2583 105.092 21.4241ZM110.743 21.4241C110.743 20.0583 109.885 19.3948 108.95 19.3948C108.015 19.3948 107.157 20.0583 107.157 21.4241C107.157 22.79 108.015 23.4534 108.95 23.4534C109.885 23.4144 110.743 22.7509 110.743 21.4241Z" fill="white"/>
<path d="M113.822 17.9121H118.148V19.5902H115.848V24.8975H113.822V17.9121Z" fill="white"/>
<path d="M118.615 21.4241C118.615 19.5509 119.863 17.7168 122.474 17.7168C125.124 17.7168 126.332 19.5509 126.332 21.4241C126.332 23.2973 125.085 25.1314 122.474 25.1314C119.863 25.0924 118.615 23.2583 118.615 21.4241ZM124.267 21.4241C124.267 20.0583 123.409 19.3948 122.474 19.3948C121.538 19.3948 120.681 20.0583 120.681 21.4241C120.681 22.79 121.538 23.4534 122.474 23.4534C123.409 23.4144 124.267 22.7509 124.267 21.4241Z" fill="white"/>
<path d="M127.345 17.9121H130.385C132.451 17.9121 132.996 19.278 132.996 20.2536C132.996 21.2292 132.412 22.595 130.385 22.595H129.372V24.8975H127.345V17.9121ZM129.372 21.0731H129.956C130.853 21.0731 130.931 20.5658 130.931 20.2536C130.931 19.9024 130.814 19.4731 129.956 19.4731H129.372V21.0731Z" fill="white"/>
<path d="M139.349 24.5851C138.686 25.0143 138.024 25.0924 137.4 25.0924C135.257 25.0924 133.698 23.6485 133.698 21.3851C133.698 19.0436 135.413 17.6777 137.361 17.6777C137.985 17.6777 138.725 17.8338 139.349 18.2241V20.2924C138.959 19.8631 138.413 19.4729 137.634 19.4729C136.504 19.4729 135.802 20.3314 135.802 21.4631C135.802 22.5168 136.504 23.3363 137.634 23.3363C138.374 23.3363 138.959 22.946 139.349 22.5948V24.5851Z" fill="white"/>
<path d="M140.518 17.9121H142.505V20.8389L144.688 17.9121H147.065L144.337 21.3072L147.143 24.8975H144.61L142.505 21.8926V24.8975H140.518V17.9121Z" fill="white"/>
<path d="M149.793 17.9121V22.1267L152.56 17.9121H154.548V24.8975H152.599V20.7219L149.832 24.8975H147.845V17.9121H149.793Z" fill="white"/>
<path d="M157.822 17.9122V22.0878L160.628 17.9122H162.616V24.8976H160.667V20.722L157.861 24.8976H155.873V17.9122H157.822ZM161.407 16.4293C161.018 17.2488 160.082 17.561 159.264 17.561C158.407 17.561 157.51 17.2488 157.12 16.4293L158.29 16C158.484 16.4683 158.913 16.5854 159.303 16.5854C159.693 16.5854 160.121 16.4683 160.316 16L161.407 16.4293Z" fill="white"/>
<path d="M62.6504 29.502H64.677L65.9241 33.7556L67.2102 29.502H69.2368L70.2891 36.4873H68.3404L67.7948 32.4288L66.5867 36.4873H65.3006L64.0924 32.4288L63.5468 36.4873H61.5981L62.6504 29.502Z" fill="white"/>
<path d="M71.1465 29.502H75.4725V31.18H73.1731V32.1556H75.2386V33.6776H73.1731V34.8093H75.4725V36.4873H71.1465V29.502Z" fill="white"/>
<path d="M77.6939 31.18H76.135V29.502H81.3184V31.18H79.7205V36.4873H77.6939V31.18Z" fill="white"/>
<path d="M83.5008 29.502H85.9561L88.5283 36.4873H86.3848L85.9951 35.2776H83.5398L83.1501 36.4873H81.0066L83.5008 29.502ZM83.8906 33.7556H85.5274L84.709 31.18L83.8906 33.7556Z" fill="white"/>
<path d="M95.8163 29.502V36.4873H93.7897V31.18H92.3477V33.9507C92.3477 34.9654 92.2308 36.6044 89.7366 36.6044C89.4248 36.6044 89.2299 36.6044 88.8792 36.5263V34.8483C89.035 34.8873 89.1909 34.9263 89.3079 34.9263C90.2042 34.9263 90.3211 34.38 90.3211 33.4044V29.541H95.8163V29.502Z" fill="white"/>
<path d="M103.455 29.502V36.4873H101.428V31.18H99.9864V33.9507C99.9864 34.9654 99.8695 36.6044 97.3752 36.6044C97.0634 36.6044 96.8686 36.6044 96.5178 36.5263V34.8483C96.6737 34.8873 96.8296 34.9263 96.9465 34.9263C97.8429 34.9263 97.9598 34.38 97.9598 33.4044V29.541H103.455V29.502Z" fill="white"/>
<path d="M106.573 29.502L108.015 32.4288L109.145 29.502H111.328L108.093 36.4873H105.949L106.924 34.5361L104.196 29.502H106.573Z" fill="white"/>
<path d="M112.029 29.502H115.069C117.134 29.502 117.68 30.8678 117.68 31.8434C117.68 32.819 117.095 34.1849 115.069 34.1849H114.055V36.4873H112.029V29.502V29.502ZM114.055 32.6239H114.64C115.536 32.6239 115.614 32.1166 115.614 31.8044C115.614 31.4532 115.497 31.0239 114.64 31.0239H114.055V32.6239Z" fill="white"/>
<path d="M118.576 29.502H122.902V31.18H120.603V36.4873H118.576V29.502Z" fill="white"/>
<path d="M125.669 29.502V33.6776L128.475 29.502H130.424V36.4873H128.475V32.2727L125.708 36.4873H123.721V29.502H125.669Z" fill="white"/>
<path d="M135.296 33.7556C134.555 33.8727 134.399 33.8727 133.932 33.8727C131.476 33.8727 131.398 32.702 131.398 31.5312V29.502H133.425V31.2581C133.425 31.8044 133.425 32.3117 134.555 32.3117C134.711 32.3117 134.945 32.2727 135.335 32.2337V29.502H137.361V36.4873H135.335V33.7556H135.296Z" fill="white"/>
<path d="M138.647 29.502H142.973V31.18H140.674V32.1556H142.779V33.6776H140.674V34.8093H142.973V36.4873H138.647V29.502Z" fill="white"/>
<path d="M149.365 36.1759C148.702 36.6051 148.04 36.6832 147.416 36.6832C145.273 36.6832 143.714 35.2393 143.714 32.9759C143.714 30.6344 145.429 29.2686 147.377 29.2686C148.001 29.2686 148.741 29.4247 149.365 29.8149V31.8442C148.975 31.4149 148.43 31.0247 147.65 31.0247C146.52 31.0247 145.818 31.8832 145.818 33.0149C145.818 34.0686 146.52 34.8881 147.65 34.8881C148.391 34.8881 148.975 34.4978 149.365 34.1466V36.1759Z" fill="white"/>
<path d="M150.534 29.502H152.522V32.4288L154.704 29.502H157.081L154.353 32.8581L157.159 36.4873H154.626L152.522 33.4824V36.4873H150.534V29.502Z" fill="white"/>
<path d="M159.809 29.502V33.6776L162.577 29.502H164.564V36.4873H162.616V32.2727L159.848 36.4873H157.861V29.502H159.809Z" fill="white"/>
<path d="M167.838 29.502V33.6776L170.644 29.502H172.631V36.4874H170.683V32.2727L167.877 36.4483H165.889V29.502H167.838ZM171.423 27.98C171.034 28.7996 170.098 29.1118 169.28 29.1118C168.422 29.1118 167.526 28.7996 167.136 27.98L168.305 27.5508C168.5 28.0191 168.929 28.1361 169.319 28.1361C169.708 28.1361 170.137 28.0191 170.332 27.5508L171.423 27.98Z" fill="white"/>
<path d="M62.1047 41.0537H64.1313V44.0196L66.3138 41.0537H68.6522L65.9241 44.4488L68.7301 48.0781H66.1969L64.1313 45.0732V48.0781H62.1047V41.0537Z" fill="white"/>
<path d="M68.6133 44.5657C68.6133 42.6925 69.8604 40.8584 72.4716 40.8584C75.1217 40.8584 76.3299 42.6925 76.3299 44.5657C76.3299 46.4389 75.0828 48.273 72.4716 48.273C69.8214 48.273 68.6133 46.4389 68.6133 44.5657ZM74.2643 44.5657C74.2643 43.1999 73.4069 42.5364 72.4716 42.5364C71.5362 42.5364 70.6788 43.1999 70.6788 44.5657C70.6788 45.9316 71.5362 46.595 72.4716 46.595C73.4069 46.595 74.2643 45.9316 74.2643 44.5657Z" fill="white"/>
<path d="M77.8499 41.0537H79.8375L81.1236 45.3464L82.3707 41.0537H84.3973L85.4496 48.0781H83.5009L82.9943 44.0196L81.7471 48.0781H80.461L79.2529 44.0196L78.7073 48.0781H76.7976L77.8499 41.0537Z" fill="white"/>
<path d="M86.3069 41.0537H91.6462V42.7318H88.3335V43.7854H89.3857C89.9314 43.7854 92.2308 43.7854 92.2308 45.8927C92.2308 48.0781 89.9314 48.0781 89.3857 48.0781H86.3069V41.0537V41.0537ZM89.1909 46.6732C89.8144 46.6732 90.2042 46.4781 90.2042 45.9318C90.2042 45.3854 89.8144 45.1903 89.1909 45.1903H88.3335V46.6732H89.1909V46.6732Z" fill="white"/>
<path d="M95.1147 41.0537V45.2683L97.9207 41.0537H99.8693V48.0781H97.9597V43.8635L95.1536 48.0781H93.166V41.0537H95.1147Z" fill="white"/>
<path d="M101.233 41.0537H103.26V43.5903H105.715V41.0537H107.703V48.0781H105.715V45.2683H103.26V48.0781H101.233V41.0537Z" fill="white"/>
<path d="M110.977 41.0537H113.432L116.004 48.0391H113.822L113.432 46.8293H110.977L110.587 48.0391H108.443L110.977 41.0537ZM111.405 45.3074H113.042L112.224 42.7318L111.405 45.3074Z" fill="white"/>
<path d="M117.212 42.7318H115.615V41.0537H120.798V42.7318H119.239V48.0781H117.212V42.7318Z" fill="white"/>
</g>
<defs>
<clipPath id="clip0_1941:1097">
<rect width="156.632" height="32" fill="white" transform="translate(16 16)"/>
</clipPath>
</defs>
</svg>
